<?xml version="1.0" encoding="utf-8"?>
<!-- Generator: Adobe Illustrator 25.3.1, SVG Export Plug-In . SVG Version: 6.00 Build 0)  -->
<svg version="1.1" id="Laag_1" xmlns="http://www.w3.org/2000/svg" xmlns:xlink="http://www.w3.org/1999/xlink" x="0px" y="0px" width="185.33px" height="260.22px"
	 viewBox="0 0 185.33 260.22" style="enable-background:new 0 0 185.33 260.22;" xml:space="preserve">
<style type="text/css">
	.st0{fill:#50AA35;}
	.st1{clip-path:url(#SVGID_4_);}
	.st2{fill:#FFFFFF;}
	.st3{clip-path:url(#SVGID_6_);}
	.st4{clip-path:url(#SVGID_8_);}
	.st5{clip-path:url(#SVGID_10_);}
</style>
<g>
	<defs>
		<rect id="SVGID_1_" width="185.33" height="260.22"/>
	</defs>
	<clipPath id="SVGID_2_">
		<use xlink:href="#SVGID_1_"  style="overflow:visible;"/>
	</clipPath>
</g>
<g>
	<path class="st0" d="M52.67,194.03h6.5v1.84h-2.35v7.82h-1.9v-7.82h-2.26V194.03z"/>
	<path class="st0" d="M69.13,194.03v9.65h-1.9v-3.92h-4.31v3.92h-1.9v-9.65h1.9v3.9h4.31v-3.9H69.13z"/>
	<path class="st0" d="M71.62,194.03h6.58v1.84h-4.68v2.06h4.14v1.84h-4.14v2.08h4.87v1.84h-6.77V194.03z"/>
	<path class="st0" d="M87.55,194.03c0.8,0,1.47,0.13,2.02,0.4s0.97,0.64,1.26,1.13c0.29,0.49,0.43,1.06,0.43,1.72
		c0,0.39-0.06,0.79-0.18,1.19s-0.31,0.76-0.56,1.08s-0.6,0.58-1.04,0.78c-0.43,0.2-0.96,0.29-1.59,0.29h-1.36v3.06h-1.9v-9.65H87.55
		z M87.87,198.78c0.29,0,0.53-0.05,0.72-0.15c0.19-0.1,0.34-0.23,0.45-0.38c0.11-0.15,0.19-0.31,0.24-0.48
		c0.05-0.17,0.07-0.31,0.07-0.43c0-0.1-0.02-0.22-0.05-0.39c-0.03-0.16-0.09-0.33-0.19-0.49s-0.24-0.31-0.44-0.42
		s-0.46-0.17-0.79-0.17h-1.36v2.91H87.87z"/>
	<path class="st0" d="M92.37,198.87c0-0.67,0.13-1.29,0.38-1.89c0.25-0.59,0.6-1.12,1.06-1.58c0.45-0.46,0.97-0.82,1.57-1.08
		c0.59-0.26,1.23-0.39,1.92-0.39c0.67,0,1.31,0.13,1.9,0.39c0.59,0.26,1.12,0.62,1.58,1.08s0.82,0.99,1.08,1.58s0.39,1.22,0.39,1.89
		c0,0.68-0.13,1.32-0.39,1.91s-0.62,1.12-1.08,1.57s-0.99,0.8-1.58,1.06s-1.23,0.38-1.9,0.38c-0.68,0-1.32-0.13-1.92-0.38
		s-1.12-0.61-1.57-1.06c-0.45-0.45-0.8-0.97-1.06-1.57C92.5,200.19,92.37,199.55,92.37,198.87z M94.34,198.87
		c0,0.43,0.08,0.83,0.23,1.2c0.15,0.37,0.37,0.7,0.64,0.98c0.28,0.29,0.59,0.5,0.96,0.66c0.36,0.16,0.76,0.24,1.19,0.24
		c0.41,0,0.79-0.08,1.15-0.24c0.35-0.16,0.66-0.38,0.92-0.66c0.26-0.28,0.47-0.61,0.62-0.98c0.15-0.37,0.22-0.77,0.22-1.2
		c0-0.44-0.08-0.84-0.23-1.22s-0.36-0.71-0.63-0.99s-0.58-0.5-0.94-0.66c-0.36-0.16-0.75-0.24-1.17-0.24s-0.81,0.08-1.17,0.24
		c-0.36,0.16-0.67,0.38-0.94,0.66c-0.27,0.28-0.48,0.61-0.63,0.99S94.34,198.43,94.34,198.87z"/>
</g>
<g>
	<path class="st0" d="M102.53,194.1h2.23l2.06,6.06l-0.3-0.13l1.8-4.47l0.88,2.61l-2.78,5.97L102.53,194.1z M107.37,194.1h1.89
		l2.37,5.86l-0.34-0.05l1.77-5.81h2.05l-3.72,10.01L107.37,194.1z"/>
	<path class="st0" d="M116.78,194.03h6.58v1.84h-4.68v2.06h4.14v1.84h-4.14v2.08h4.87v1.84h-6.77V194.03z"/>
	<path class="st0" d="M128.44,194.03c0.6,0,1.14,0.08,1.61,0.23c0.47,0.15,0.87,0.37,1.19,0.66c0.32,0.28,0.56,0.62,0.73,1.02
		c0.17,0.4,0.25,0.85,0.25,1.34c0,0.39-0.06,0.79-0.18,1.18s-0.31,0.75-0.58,1.08c-0.27,0.32-0.62,0.58-1.06,0.78
		c-0.44,0.2-0.98,0.3-1.63,0.3h-1.36v3.07h-1.9v-9.65H128.44z M128.76,198.78c0.29,0,0.53-0.05,0.72-0.14
		c0.19-0.1,0.34-0.22,0.45-0.37s0.19-0.3,0.24-0.47c0.05-0.16,0.07-0.31,0.07-0.45c0-0.11-0.02-0.24-0.05-0.4
		c-0.03-0.16-0.09-0.33-0.19-0.49c-0.1-0.17-0.24-0.31-0.44-0.42c-0.2-0.11-0.46-0.17-0.79-0.17h-1.36v2.91H128.76z M130.55,199.96
		l2.39,3.72h-2.22l-2.44-3.67L130.55,199.96z"/>
</g>
<g>
	<path class="st0" d="M59,214.17c0-0.67,0.13-1.29,0.38-1.89c0.25-0.59,0.6-1.12,1.06-1.58c0.45-0.46,0.97-0.82,1.57-1.08
		c0.59-0.26,1.23-0.39,1.92-0.39c0.67,0,1.31,0.13,1.9,0.39c0.59,0.26,1.12,0.62,1.58,1.08c0.46,0.46,0.82,0.99,1.08,1.58
		s0.39,1.22,0.39,1.89c0,0.68-0.13,1.32-0.39,1.91s-0.62,1.12-1.08,1.57c-0.46,0.45-0.99,0.8-1.58,1.06s-1.23,0.38-1.9,0.38
		c-0.68,0-1.32-0.13-1.92-0.38c-0.59-0.25-1.12-0.61-1.57-1.06c-0.45-0.45-0.8-0.97-1.06-1.57C59.12,215.49,59,214.86,59,214.17z
		 M60.96,214.17c0,0.43,0.08,0.83,0.23,1.2c0.15,0.37,0.37,0.7,0.64,0.98c0.28,0.29,0.59,0.5,0.96,0.66
		c0.36,0.16,0.76,0.24,1.19,0.24c0.41,0,0.79-0.08,1.15-0.24c0.35-0.16,0.66-0.38,0.92-0.66c0.26-0.28,0.47-0.61,0.62-0.98
		c0.15-0.37,0.22-0.77,0.22-1.2c0-0.44-0.08-0.84-0.23-1.22c-0.15-0.38-0.36-0.71-0.63-0.99s-0.58-0.5-0.94-0.66
		c-0.36-0.16-0.75-0.24-1.17-0.24c-0.42,0-0.81,0.08-1.17,0.24c-0.36,0.16-0.67,0.38-0.94,0.66s-0.48,0.61-0.63,0.99
		S60.96,213.74,60.96,214.17z"/>
	<path class="st0" d="M70.76,209.34h6.03v1.84h-4.13v2.19h3.58v1.84h-3.58v3.79h-1.9V209.34z"/>
	<path class="st0" d="M82.89,209.34h1.9v7.82h4.54v1.84h-6.44V209.34z"/>
</g>
<g>
	<path class="st0" d="M90.46,214.17c0-0.67,0.13-1.29,0.38-1.89c0.25-0.59,0.6-1.12,1.06-1.58c0.45-0.46,0.97-0.82,1.57-1.08
		c0.59-0.26,1.23-0.39,1.92-0.39c0.67,0,1.31,0.13,1.9,0.39c0.59,0.26,1.12,0.62,1.58,1.08c0.46,0.46,0.82,0.99,1.08,1.58
		s0.39,1.22,0.39,1.89c0,0.68-0.13,1.32-0.39,1.91s-0.62,1.12-1.08,1.57c-0.46,0.45-0.99,0.8-1.58,1.06s-1.23,0.38-1.9,0.38
		c-0.68,0-1.32-0.13-1.92-0.38c-0.59-0.25-1.12-0.61-1.57-1.06c-0.45-0.45-0.8-0.97-1.06-1.57
		C90.58,215.49,90.46,214.86,90.46,214.17z M92.42,214.17c0,0.43,0.08,0.83,0.23,1.2c0.15,0.37,0.37,0.7,0.64,0.98
		c0.28,0.29,0.59,0.5,0.96,0.66c0.36,0.16,0.76,0.24,1.19,0.24c0.41,0,0.79-0.08,1.15-0.24c0.35-0.16,0.66-0.38,0.92-0.66
		c0.26-0.28,0.47-0.61,0.62-0.98c0.15-0.37,0.22-0.77,0.22-1.2c0-0.44-0.08-0.84-0.23-1.22c-0.15-0.38-0.36-0.71-0.63-0.99
		s-0.58-0.5-0.94-0.66c-0.36-0.16-0.75-0.24-1.17-0.24c-0.42,0-0.81,0.08-1.17,0.24c-0.36,0.16-0.67,0.38-0.94,0.66
		c-0.27,0.28-0.48,0.61-0.63,0.99S92.42,213.74,92.42,214.17z"/>
	<path class="st0" d="M109.46,218.19c-0.11,0.09-0.3,0.21-0.58,0.35c-0.28,0.15-0.63,0.28-1.04,0.39c-0.41,0.11-0.87,0.17-1.36,0.16
		c-0.76-0.02-1.44-0.15-2.04-0.41c-0.6-0.26-1.11-0.61-1.52-1.06c-0.42-0.45-0.73-0.96-0.95-1.53c-0.22-0.58-0.33-1.19-0.33-1.85
		c0-0.73,0.11-1.41,0.33-2.02c0.22-0.61,0.54-1.14,0.96-1.59c0.42-0.45,0.91-0.79,1.49-1.04s1.21-0.37,1.91-0.37
		c0.65,0,1.22,0.09,1.72,0.26c0.5,0.18,0.9,0.36,1.22,0.56l-0.75,1.8c-0.22-0.17-0.51-0.34-0.87-0.52
		c-0.36-0.18-0.78-0.27-1.25-0.27c-0.37,0-0.72,0.08-1.06,0.23c-0.34,0.15-0.63,0.37-0.89,0.65c-0.26,0.28-0.46,0.61-0.61,0.98
		c-0.15,0.37-0.22,0.78-0.22,1.21c0,0.46,0.07,0.89,0.2,1.27c0.13,0.38,0.33,0.71,0.58,0.99s0.56,0.49,0.91,0.64
		c0.35,0.15,0.75,0.22,1.2,0.22c0.52,0,0.96-0.08,1.33-0.25s0.65-0.34,0.84-0.52L109.46,218.19z"/>
	<path class="st0" d="M113.29,212.77l-0.05,0.49l0.29-0.37l3.15-3.55h2.46l-3.99,4.33l4,5.32h-2.41l-2.98-4.12l-0.47,0.47v3.65
		h-1.93v-9.65h1.93V212.77z"/>
	<path class="st0" d="M125.75,211.67c-0.37-0.2-0.74-0.37-1.12-0.5c-0.38-0.13-0.74-0.2-1.07-0.2c-0.41,0-0.73,0.08-0.97,0.25
		c-0.24,0.17-0.35,0.42-0.35,0.75c0,0.23,0.09,0.43,0.27,0.61c0.18,0.18,0.41,0.34,0.7,0.48c0.28,0.14,0.58,0.27,0.88,0.38
		c0.28,0.1,0.56,0.23,0.83,0.37c0.28,0.14,0.52,0.32,0.74,0.54c0.22,0.21,0.39,0.48,0.52,0.8c0.13,0.32,0.2,0.71,0.2,1.17
		c0,0.49-0.13,0.94-0.38,1.36c-0.25,0.42-0.62,0.76-1.12,1.02c-0.49,0.26-1.09,0.39-1.81,0.39c-0.37,0-0.74-0.04-1.12-0.11
		c-0.38-0.07-0.75-0.19-1.12-0.34c-0.37-0.15-0.72-0.35-1.06-0.58l0.84-1.48c0.23,0.17,0.47,0.31,0.74,0.44s0.54,0.23,0.81,0.29
		c0.27,0.07,0.52,0.11,0.75,0.11c0.23,0,0.46-0.03,0.69-0.1c0.23-0.07,0.42-0.18,0.58-0.33c0.15-0.16,0.23-0.38,0.23-0.66
		c0-0.19-0.06-0.37-0.19-0.52c-0.13-0.16-0.3-0.3-0.51-0.43c-0.21-0.13-0.45-0.25-0.7-0.34c-0.3-0.11-0.6-0.24-0.92-0.39
		c-0.31-0.15-0.61-0.33-0.88-0.54c-0.28-0.21-0.5-0.48-0.67-0.8c-0.17-0.32-0.26-0.71-0.26-1.17c0-0.56,0.12-1.04,0.37-1.46
		c0.25-0.41,0.6-0.74,1.06-0.98c0.45-0.24,0.98-0.37,1.57-0.4c0.78,0,1.41,0.09,1.89,0.28s0.92,0.4,1.3,0.66L125.75,211.67z"/>
</g>
<g>
	<defs>
		<rect id="SVGID_3_" width="185.33" height="260.22"/>
	</defs>
	<clipPath id="SVGID_4_">
		<use xlink:href="#SVGID_3_"  style="overflow:visible;"/>
	</clipPath>
	<g class="st1">
		<path class="st2" d="M130.95,43.57c-0.26,6.71-2.93,12.64-9.72,16.99C135.64,58.98,138.06,50.68,130.95,43.57"/>
	</g>
	<g class="st1">
		<path class="st2" d="M155.77,92.92c1.57-3.73,0.59-6.96,0.59-6.96c-0.84-0.32-1.56-0.45-2.18-0.45c-2.67,0.03-3.38,2.62-3.38,2.62
			c0.57,0.43,0.82,0.85,0.9,1.34c0.15,0.91-0.29,2.05-0.42,3.96c-0.02,0.34-0.04,0.7-0.04,1.09c0.01,1.41,0.42,2.07,1.03,2.13
			C153.27,96.76,154.78,95.25,155.77,92.92"/>
	</g>
	<g class="st1">
		<path class="st0" d="M162.4,89.39c-1.56,4.66-3.38,8.06-5.18,10.55c-4.62,6.36-9.17,6.74-9.17,6.74s-5.17,0.58-8.75,2.17
			c-0.32,0.14-0.64,0.3-0.93,0.46c-1.17,0.65-2.05,1.44-2.32,2.38c-0.33,1.18-1.38,2.43-2.57,3.66c-0.24,0.24-0.48,0.49-0.72,0.73
			c-2.07,2.06-4.18,4.02-3.41,5.48c0.13,0.26,0.36,0.5,0.69,0.72c0.33,0.22,0.76,0.32,1.26,0.3c4.49-0.16,15.04-9.11,18.28-9
			c0.24,0.01,0.44,0.07,0.6,0.18c0.23,0.17,0.41,0.4,0.56,0.65c0.96,1.59,0.43,4.54-0.06,6.39c-0.26,0.97-0.5,1.64-0.5,1.64
			C162.02,110.29,162.4,89.4,162.4,89.39"/>
	</g>
	<g class="st1">
		<path class="st2" d="M128.43,107.05c0,0-0.26,4.59,5.18,4.35c0,0,2.23-3.12,1.9-7.7c-0.1-1.43-0.43-2.69-0.86-3.62
			c-0.09-0.19-0.18-0.36-0.27-0.52c-0.48-0.79-1.05-1.23-1.6-1.15c-0.39,0.06-0.78,0.38-1.12,0.99c-0.15,0.26-0.29,0.56-0.42,0.94
			c-0.13,0.38-0.23,0.73-0.33,1.07c-0.58,2.16-0.51,3.58-1.02,4.52C129.62,106.43,129.19,106.79,128.43,107.05"/>
	</g>
	<g class="st1">
		<path class="st2" d="M142.28,89.64c-0.09,0.32-0.18,0.67-0.22,1.11c-0.5,4.64,1.06,6.35-1.36,7.83c0,0,0.32,1.94,1.97,3.01
			c0.66,0.43,1.53,0.72,2.68,0.68c0.57-0.01,1.21-0.11,1.93-0.31c0,0,0.77-1.83,0.77-4.53c0-1.23-0.16-2.64-0.62-4.14
			c-0.37-1.2-0.85-2.25-1.39-3.08c-0.13-0.21-0.27-0.4-0.41-0.58c-0.69-0.89-1.42-1.4-2.05-1.39
			C143.03,88.25,142.56,88.7,142.28,89.64"/>
	</g>
	<g class="st1">
		<path class="st2" d="M124.35,112.66c-1.08-0.42-2.01-0.59-2.81-0.58c-0.79,0.01-1.45,0.2-2,0.47c-1.82,0.93-2.36,2.9-2.36,2.9
			c0.22,0.17,0.39,0.33,0.54,0.5c0.96,1.06,0.67,2.17,0.36,4.04c-0.17,0.99-0.34,2.19-0.33,3.7c0.01,1.82,0.55,2.66,1.33,2.75
			c1.29,0.15,3.24-1.8,4.51-4.81c0.57-1.35,0.88-2.65,1.03-3.83C125,114.82,124.35,112.66,124.35,112.66"/>
	</g>
</g>
<g>
	<path class="st0" d="M92.16,143.89l0.01,0v0H92.16z M92.14,143.89h0.01H92.14L92.14,143.89z"/>
</g>
<g>
	<defs>
		<rect id="SVGID_5_" width="185.33" height="260.22"/>
	</defs>
	<clipPath id="SVGID_6_">
		<use xlink:href="#SVGID_5_"  style="overflow:visible;"/>
	</clipPath>
	<g class="st3">
		<path class="st2" d="M141.28,123.04c-0.13-0.03-0.28-0.03-0.47,0c-1.55,0.12-12.03,7.52-12.56,8.08c-0.02,0.2-0.03,0.42-0.04,0.65
			c-0.1,2.52,0.41,6.47,0.65,7.36c0.97-0.38,10.94-10.72,12.16-13.24c0.58-1.07,0.8-1.79,0.75-2.24c-0.02-0.19-0.09-0.33-0.2-0.43
			C141.5,123.13,141.41,123.07,141.28,123.04"/>
	</g>
	<g class="st3">
		<path class="st2" d="M125.93,136.19c-0.04-0.11-0.06-0.23-0.12-0.34c-0.02-0.08-0.05-0.16-0.08-0.24
			c-0.11-0.34-0.23-0.68-0.4-1.01c-0.19,0.43-9.4,9.32-9.78,9.56c-0.05,0.27-0.14,0.84-0.22,1.45c-0.11,0.78-0.2,1.62-0.21,2
			c0.05,0.01,0.14,0.01,0.23,0.01c0.02,0,0.03,0,0.06,0c0.89,0,3.15-0.22,4.12-0.78c1.35-0.6,2.6-1.52,3.64-2.62
			c1.35-1.41,2.35-3.13,2.73-4.93c0.09-0.31,0.17-0.61,0.21-0.91C126.24,137.63,126.18,136.88,125.93,136.19"/>
	</g>
	<g class="st3">
		<path class="st2" d="M112.24,147.91c0.04-0.18,0.04-0.5,0.01-0.83c-0.04-0.55-0.17-1.15-0.36-1.28c-0.04-0.07-0.16-0.09-0.31-0.09
			c-0.05,0-0.09-0.01-0.15,0c-1.11,0.11-3.89,1.22-5.62,2.05c-0.96,0.46-1.6,0.83-1.45,0.9c-0.02,0.01,0,0.03,0.04,0.05
			c0.27,0.1,1.6,0.2,3.08,0.2C109.71,148.91,112.3,148.69,112.24,147.91"/>
	</g>
	<g class="st3">
		<path class="st2" d="M54.39,43.57c0.26,6.71,2.93,12.64,9.72,16.99C49.69,58.98,47.27,50.68,54.39,43.57"/>
	</g>
	<g class="st3">
		<path class="st2" d="M29.56,92.92c-1.57-3.73-0.59-6.96-0.59-6.96c0.84-0.32,1.56-0.45,2.18-0.45c2.67,0.03,3.38,2.62,3.38,2.62
			c-0.57,0.43-0.82,0.85-0.9,1.34c-0.15,0.91,0.29,2.05,0.42,3.96c0.02,0.34,0.04,0.7,0.04,1.09c-0.01,1.41-0.42,2.07-1.03,2.13
			C32.06,96.76,30.55,95.25,29.56,92.92"/>
	</g>
	<g class="st3">
		<path class="st0" d="M22.93,89.39c1.56,4.66,3.38,8.06,5.18,10.55c4.62,6.36,9.17,6.74,9.17,6.74s5.17,0.58,8.75,2.17
			c0.32,0.14,0.64,0.3,0.93,0.46c1.17,0.65,2.05,1.44,2.32,2.38c0.33,1.18,1.38,2.43,2.57,3.66c0.24,0.24,0.48,0.49,0.72,0.73
			c2.07,2.06,4.18,4.02,3.41,5.48c-0.13,0.26-0.36,0.5-0.69,0.72s-0.76,0.32-1.26,0.3c-4.49-0.16-15.04-9.11-18.28-9
			c-0.24,0.01-0.44,0.07-0.6,0.18c-0.23,0.17-0.41,0.4-0.56,0.65c-0.96,1.59-0.43,4.54,0.06,6.39c0.26,0.97,0.5,1.64,0.5,1.64
			C23.31,110.29,22.93,89.4,22.93,89.39"/>
	</g>
	<g class="st3">
		<path class="st0" d="M147,52.83c0,0-2.43-0.5-4.95-0.47c-0.32,0-0.63,0.02-0.95,0.04c-2.19,0.16-4.24,0.83-4.57,2.72
			c-0.39,2.25,1.33,3.48,3.07,4.14c0.79,0.3,1.58,0.48,2.18,0.59c-0.14-0.01-0.29-0.02-0.43-0.04c-0.64-0.06-1.31-0.1-2-0.12
			c-0.15,0-0.31-0.01-0.46-0.01c-3.28-0.02-6.87,0.57-8.01,2.36c-0.68,1.08-0.49,2.58,1.18,4.64h0c-0.01,0-0.02,0-0.03,0
			c0,0-8.23-1.99-13.18-2.15c-4.96-0.15-10.8,0.39-14.31-2.28c-3.51-2.67,9.32-2.48,9.87-2.48c3.62,0,13.11-7.16,13.59-16.2
			c0.2-3.67,1.37-8.78,6.49-8.65c6.5,0.49,4.59,9.26,4.59,9.26c0,0.01,0,0.02,0,0.03c0,3.26,2.68,5.91,5.99,5.91
			c0.07,0,0.14-0.01,0.21-0.01l0.04,0.07c2.18,0,4.04-1.24,4.95-3.04c0.19-0.34,0.35-0.69,0.48-1.07c0.11-0.32,0.2-0.65,0.25-1
			c0.54-1.34,1.41-3.91,1.69-7.07c0.05-0.53,0.08-1.07,0.08-1.62c0.08-5-1.52-11.08-7.94-16.06c0,0-7.33-4.71-17.2,0.47h0
			c0.1-3.77,3.78-4.72,3.78-4.72c-1.4-0.27-1.93-1.32-2.15-2.55c-0.28-1.58-0.05-3.47-0.53-4.37c0-0.01,0-0.01,0-0.02
			c0-0.02-0.01-0.05-0.01-0.07c-0.01,0-0.02,0-0.03,0.01c0,0-0.01,0-0.01,0c-0.12-0.18-0.27-0.31-0.47-0.39
			c-0.14-0.05-0.3-0.08-0.5-0.07c-0.4,0.03-0.94,0.23-1.63,0.61c-0.12,0.07-0.24,0.13-0.37,0.21c-0.04,0.02-0.08,0.04-0.11,0.06
			c-0.17,0.09-0.33,0.17-0.49,0.25c-1.04,0.16-2.09,0.26-3.1,0.27c-0.14,0-0.29,0.01-0.43,0c-1.14-0.03-2.21-0.21-3.12-0.62
			C115.88,6.5,116,0,113.35,0c-0.74,0-1.7,0.51-3,1.74c-1.68,1.43-3.64,3.41-6.05,4.05c-3.32-0.33-5.49-1.63-7.23-2.91
			c-1.36-1.22-2.49-1.98-3.47-2.39c-0.11-0.05-0.56-0.18-0.93-0.19c-0.44-0.01-0.81,0.13-0.93,0.19c-0.98,0.41-2.11,1.17-3.47,2.39
			c-1.74,1.28-3.91,2.58-7.23,2.91c-2.4-0.64-4.36-2.62-6.05-4.05c-1.3-1.24-2.25-1.75-3-1.74c-2.65,0-2.53,6.5-5.12,9.39
			C65.94,9.8,64.88,9.97,63.74,10c-0.14,0-0.29,0-0.43,0C62.3,10,61.25,9.89,60.2,9.73c-0.16-0.08-0.32-0.16-0.49-0.25
			c-0.04-0.02-0.07-0.04-0.11-0.06c-0.13-0.08-0.25-0.14-0.37-0.21c-0.69-0.38-1.22-0.58-1.63-0.61c-0.2-0.01-0.36,0.01-0.5,0.07
			c-0.2,0.07-0.36,0.2-0.47,0.39c0,0,0,0-0.01,0c-0.01,0-0.02,0-0.03-0.01c-0.01,0.02-0.01,0.05-0.01,0.07c0,0.01,0,0.01,0,0.02
			c-0.48,0.91-0.25,2.79-0.53,4.37c-0.22,1.23-0.74,2.28-2.15,2.55c0,0,3.68,0.95,3.78,4.72h0c-9.87-5.18-17.2-0.47-17.2-0.47
			c-6.42,4.98-8.02,11.06-7.94,16.06c0.01,0.56,0.04,1.1,0.08,1.62c0.28,3.16,1.15,5.73,1.69,7.07c0.05,0.35,0.14,0.68,0.25,1
			c0.12,0.37,0.28,0.73,0.47,1.07c0.91,1.8,2.77,3.04,4.95,3.04l0.04-0.07c0.07,0,0.14,0.01,0.21,0.01c3.31,0,5.99-2.65,5.99-5.91
			c0-0.01,0-0.02,0-0.03c0,0-1.91-8.76,4.59-9.26c5.12-0.13,6.29,4.98,6.49,8.65c0.49,9.04,9.97,16.19,13.59,16.2
			c0.56,0,13.38-0.19,9.87,2.48c-3.51,2.67-9.35,2.13-14.31,2.28c-4.96,0.16-13.18,2.15-13.18,2.15c-0.01,0-0.02,0-0.03,0h0
			c1.67-2.06,1.87-3.57,1.18-4.64c-1.14-1.79-4.72-2.39-8.01-2.36c-0.16,0-0.31,0.01-0.46,0.01c-0.7,0.01-1.37,0.05-2,0.12
			c-0.14,0.01-0.3,0.02-0.43,0.04c0.6-0.11,1.39-0.29,2.18-0.59c1.74-0.66,3.46-1.89,3.07-4.14c-0.33-1.89-2.37-2.56-4.56-2.72
			c-0.32-0.02-0.63-0.04-0.95-0.04c-2.52-0.03-4.95,0.47-4.95,0.47c-4.45,0.72-18.3,2.93-18.3,18.64c0.03,1.43,0.33,4.45,1.39,8.19
			c0.73,2.55,1.81,5.44,3.42,8.39c-0.02-0.18,0.19-14.79,6.23-17.99v0v0c-0.24,1.4-0.37,2.88-0.39,4.31
			c-0.03,2.39,0.26,4.64,0.91,6.18c0.63,1.74,1.82,2.99,3.96,2.98c0,0,3.68-1.92,6.65-1.96c2.31-0.02,4.19,1.1,3.58,5.17
			c-0.21,1.39,0.11,4.25,1.42,6.25c0.87,1.33,2.19,2.27,4.09,2.13c0.32-0.02,0.65-0.08,0.99-0.16c0.7-0.17,1.36-0.26,1.97-0.27
			c4.31-0.04,6.55,4.05,5.48,12.06c0.76-0.04,1.5-0.05,2.2-0.04c7.36,0.14,11.33,3.03,13.47,5.18c0.92,0.92,1.51,1.71,1.88,2.08
			c0.64-0.05,8.08-2.84,15.38-2.95c7.29,0.11,14.74,2.9,15.38,2.95c0.37-0.37,0.96-1.16,1.88-2.08c2.14-2.15,6.11-5.05,13.47-5.18
			c0.7-0.01,1.43,0,2.2,0.04c-1.07-8.02,1.17-12.1,5.48-12.06c0.62,0.01,1.28,0.1,1.97,0.27c0.35,0.09,0.68,0.14,1,0.16
			c1.89,0.14,3.21-0.8,4.09-2.13c1.31-1.99,1.63-4.86,1.42-6.25c-0.61-4.07,1.27-5.19,3.58-5.17c2.97,0.03,6.65,1.96,6.65,1.96
			c2.15,0.01,3.33-1.24,3.96-2.98c0.64-1.53,0.93-3.79,0.91-6.18c-0.02-1.43-0.15-2.91-0.39-4.31l0,0v0
			c6.03,3.2,6.25,17.81,6.23,17.99c1.61-2.95,2.69-5.83,3.42-8.39c1.07-3.73,1.37-6.76,1.39-8.19
			C165.3,55.76,151.46,53.55,147,52.83 M60.54,91.84c0,0-2.36-1.85-0.81-5.72c0,0-4.17,1.57-4.18,1.55c0.4-1,3.07-5.06,9.26-8.52
			c0,0,1.34-4.73,4.36-6.89c0,0-5.42,0.85-10.69,3.64c0,0,6.32-7.75,14.79-9.38c1.3-0.24,2.86-0.55,3-0.56
			c-0.29,0.16-3.59,1.63-4.46,4.21c0.23,0,4.8-0.57,5.43-0.5c-0.56,0.31-13.6,7.78-0.51,12.05C76.08,81.74,62.21,81.63,60.54,91.84
			 M79.55,96.63c-0.72,1.25-2.07,1.97-3.68,2.12c-0.65-1.44-1.9-2.82-3.59-3.79c-1.27-0.73-2.61-1.13-3.86-1.22
			c-0.42-0.03-0.83-0.03-1.22,0.01c-0.67-1.47-0.72-3,0-4.25c0.45-0.77,1.15-1.32,2-1.68c0.84-0.36,1.82-0.53,2.87-0.46
			c1.01,0.07,2.07,0.37,3.11,0.85c0.26,0.12,0.52,0.23,0.78,0.38C79.37,90.56,80.97,94.16,79.55,96.63 M76.61,11.78
			c0.58-0.25,1.22-0.38,1.88-0.38c0.47,0,0.91,0.08,1.33,0.2c0.81,0.24,1.52,0.68,2.09,1.26c0.09,0.09,0.18,0.18,0.27,0.28
			c-0.22-0.04-0.45-0.07-0.68-0.07c-2.35,0-4.26,1.9-4.26,4.26c0,1.57,0.86,2.92,2.11,3.66c-0.28,0.05-0.57,0.09-0.87,0.09
			c-0.67,0-1.31-0.14-1.88-0.38c-1.74-0.73-2.96-2.45-2.96-4.46C73.65,14.24,74.87,12.52,76.61,11.78 M84.63,47.69
			c-0.03,0.52-0.08,1.03-0.16,1.53c-0.05,0.31-0.08,0.62-0.15,0.93c-1.36-5.53-4.5-10.39-8.82-14.02c-2.95-2.48-6.44-4.4-10.29-5.53
			c0.61-0.08,1.22-0.12,1.85-0.14c0.15,0,0.29-0.02,0.43-0.02c9.49,0,17.18,7.35,17.18,16.41C84.68,47.13,84.65,47.41,84.63,47.69
			 M103.41,12.86c0.57-0.59,1.29-1.02,2.09-1.26c0.42-0.12,0.87-0.2,1.33-0.2c0.67,0,1.31,0.14,1.88,0.38
			c1.74,0.74,2.96,2.45,2.96,4.46c0,2-1.22,3.72-2.96,4.46c-0.58,0.24-1.22,0.38-1.88,0.38c-0.3,0-0.59-0.04-0.87-0.09
			c1.26-0.74,2.12-2.09,2.12-3.66c0-2.35-1.9-4.26-4.26-4.26c-0.23,0-0.46,0.03-0.68,0.07C103.23,13.05,103.32,12.95,103.41,12.86
			 M100.85,49.22c-0.08-0.51-0.13-1.02-0.16-1.53c-0.01-0.28-0.04-0.56-0.04-0.84c0-9.06,7.69-16.41,17.18-16.41
			c0.15,0,0.29,0.01,0.43,0.02c0.62,0.02,1.24,0.07,1.85,0.14c-3.85,1.13-7.34,3.05-10.29,5.53c-4.31,3.63-7.46,8.49-8.82,14.02
			C100.93,49.84,100.9,49.53,100.85,49.22 M118.13,93.75c-0.39-0.04-0.8-0.04-1.22-0.01c-1.25,0.09-2.59,0.49-3.86,1.22
			c-1.69,0.97-2.93,2.35-3.59,3.79c-1.6-0.16-2.96-0.88-3.68-2.12c-1.43-2.47,0.18-6.07,3.59-8.04c0.26-0.15,0.52-0.26,0.78-0.38
			c1.04-0.48,2.1-0.78,3.11-0.85c1.05-0.07,2.03,0.1,2.87,0.46c0.84,0.36,1.55,0.91,2,1.68C118.85,90.75,118.8,92.29,118.13,93.75
			 M125.6,86.12c1.55,3.87-0.81,5.72-0.81,5.72c-1.67-10.21-15.54-10.1-16.19-10.12c13.09-4.27,0.05-11.74-0.51-12.05
			c0.63-0.07,5.2,0.5,5.43,0.5c-0.87-2.58-4.17-4.04-4.46-4.21c0.14,0.01,1.69,0.31,2.99,0.56c8.46,1.64,14.79,9.38,14.79,9.38
			c-5.27-2.79-10.69-3.64-10.69-3.64c3.02,2.17,4.37,6.89,4.37,6.89c6.2,3.46,8.86,7.52,9.26,8.52
			C129.77,87.69,125.6,86.12,125.6,86.12"/>
	</g>
	<g class="st3">
		<path class="st2" d="M56.9,107.05c0,0,0.26,4.59-5.18,4.35c0,0-2.23-3.12-1.9-7.7c0.1-1.43,0.43-2.69,0.86-3.62
			c0.09-0.19,0.18-0.36,0.27-0.52c0.48-0.79,1.05-1.23,1.61-1.15c0.39,0.06,0.77,0.38,1.12,0.99c0.15,0.26,0.29,0.56,0.42,0.94
			c0.13,0.38,0.23,0.73,0.33,1.07c0.58,2.16,0.51,3.58,1.02,4.52C55.71,106.43,56.14,106.79,56.9,107.05"/>
	</g>
	<g class="st3">
		<path class="st2" d="M43.05,89.64c0.09,0.32,0.17,0.67,0.22,1.11c0.5,4.64-1.06,6.35,1.36,7.83c0,0-0.32,1.94-1.97,3.01
			c-0.66,0.43-1.53,0.72-2.68,0.68c-0.57-0.01-1.21-0.11-1.93-0.31c0,0-0.77-1.83-0.77-4.53c0-1.23,0.16-2.64,0.62-4.14
			c0.37-1.2,0.85-2.25,1.39-3.08c0.13-0.21,0.27-0.4,0.41-0.58c0.69-0.89,1.42-1.4,2.05-1.39C42.3,88.25,42.77,88.7,43.05,89.64"/>
	</g>
	<g class="st3">
		<path class="st2" d="M60.98,112.66c1.08-0.42,2.01-0.59,2.81-0.58c0.8,0.01,1.45,0.2,2,0.47c1.82,0.93,2.36,2.9,2.36,2.9
			c-0.22,0.17-0.39,0.33-0.54,0.5c-0.96,1.06-0.67,2.17-0.35,4.04c0.17,0.99,0.34,2.19,0.33,3.7c-0.01,1.82-0.55,2.66-1.32,2.75
			c-1.29,0.15-3.24-1.8-4.51-4.81c-0.57-1.35-0.88-2.65-1.03-3.83C60.33,114.82,60.98,112.66,60.98,112.66"/>
	</g>
</g>
<g>
	<path class="st0" d="M92.26,143.89L92.26,143.89L92.26,143.89z"/>
</g>
<g>
	<defs>
		<rect id="SVGID_7_" width="185.33" height="260.22"/>
	</defs>
	<clipPath id="SVGID_8_">
		<use xlink:href="#SVGID_7_"  style="overflow:visible;"/>
	</clipPath>
	<g class="st4">
		<path class="st0" d="M116.63,136.13c0.06-0.06,0.08-0.09,0.08-0.09c-0.42,0.16-1.19,0.4-2.11,0.66c-1.85,0.52-4.33,1.16-5.95,1.57
			c-0.16,0.04-0.32,0.08-0.46,0.11c0.26-0.34,0.49-0.66,0.74-0.99c2.98-4.04,4.64-7.37,5.18-10.11c0,0,1.47-2.62-1.25-5.19
			c-1.07-1-2.77-2-5.46-2.83c-7.23-2.22-12.41-2.74-14.52-2.86v-0.04v0.01c-0.06,0-0.14,0.01-0.21,0.01c-0.07,0-0.14-0.01-0.2-0.01
			v-0.01v0.04c-2.1,0.12-7.29,0.63-14.52,2.86c-2.69,0.83-4.4,1.82-5.46,2.83c-2.72,2.57-1.25,5.19-1.25,5.19
			c0.54,2.73,2.2,6.07,5.18,10.11c0.24,0.33,0.48,0.65,0.73,0.99c-0.14-0.04-0.3-0.07-0.46-0.11c-1.62-0.41-4.1-1.04-5.95-1.57
			c-0.92-0.26-1.69-0.5-2.11-0.66c0,0,0.03,0.03,0.08,0.09c0.82,0.84,7.78,7.45,23.56,7.73v0.03h0.03v0c0.13,0,0.25-0.01,0.38-0.01
			c0.13,0,0.25,0.01,0.38,0.01v0h0.03v-0.03C108.86,143.58,115.82,136.97,116.63,136.13"/>
	</g>
</g>
<g>
	<path class="st0" d="M93.07,143.89L93.07,143.89L93.07,143.89z"/>
</g>
<g>
	<path class="st0" d="M93.16,143.89L93.16,143.89h0.01H93.16z M93.17,143.89h0.01v0L93.17,143.89z"/>
</g>
<g>
	<defs>
		<rect id="SVGID_9_" width="185.33" height="260.22"/>
	</defs>
	<clipPath id="SVGID_10_">
		<use xlink:href="#SVGID_9_"  style="overflow:visible;"/>
	</clipPath>
	<g class="st5">
		<path class="st2" d="M44.05,123.04c0.13-0.03,0.28-0.03,0.47,0c1.55,0.12,12.03,7.52,12.56,8.08c0.02,0.2,0.03,0.42,0.04,0.65
			c0.1,2.52-0.41,6.47-0.65,7.36c-0.97-0.38-10.94-10.72-12.17-13.24c-0.58-1.07-0.8-1.79-0.75-2.24c0.02-0.19,0.09-0.33,0.2-0.43
			C43.83,123.13,43.93,123.07,44.05,123.04"/>
	</g>
	<g class="st5">
		<path class="st2" d="M59.4,136.19c0.04-0.11,0.06-0.23,0.12-0.34c0.02-0.08,0.05-0.16,0.08-0.24c0.11-0.34,0.23-0.68,0.4-1.01
			c0.19,0.43,9.4,9.32,9.78,9.56c0.05,0.27,0.14,0.84,0.22,1.45c0.11,0.78,0.2,1.62,0.21,2c-0.05,0.01-0.14,0.01-0.23,0.01
			c-0.02,0-0.03,0-0.06,0c-0.89,0-3.15-0.22-4.12-0.78c-1.35-0.6-2.6-1.52-3.64-2.62c-1.35-1.41-2.35-3.13-2.73-4.93
			c-0.09-0.31-0.17-0.61-0.21-0.91C59.09,137.63,59.16,136.88,59.4,136.19"/>
	</g>
	<g class="st5">
		<path class="st2" d="M73.09,147.91c-0.04-0.18-0.04-0.5-0.01-0.83c0.04-0.55,0.17-1.15,0.36-1.28c0.04-0.07,0.16-0.09,0.31-0.09
			c0.05,0,0.09-0.01,0.15,0c1.11,0.11,3.89,1.22,5.62,2.05c0.96,0.46,1.6,0.83,1.45,0.9c0.02,0.01,0,0.03-0.04,0.05
			c-0.27,0.1-1.6,0.2-3.08,0.2C75.62,148.91,73.03,148.69,73.09,147.91"/>
	</g>
</g>
<g>
	<path class="st0" d="M28.59,184.17v-23.64h5.08v18.52h18.52v5.11H28.59z"/>
	<path class="st0" d="M58.88,184.17c-1.33,0-2.48-0.48-3.43-1.43c-0.95-0.95-1.43-2.09-1.43-3.43v-13.9c0-1.33,0.48-2.47,1.43-3.43
		c0.95-0.95,2.09-1.43,3.43-1.43h13.9c1.31,0,2.45,0.47,3.41,1.43c0.96,0.95,1.44,2.09,1.44,3.43v13.9c0,1.33-0.48,2.48-1.44,3.43
		c-0.96,0.95-2.1,1.43-3.41,1.43H58.88z M60.19,179.05h11.21h1.08v-1.08v-11.21v-1.08h-1.08H60.19h-1.08v1.08v11.21v1.08H60.19z"/>
	<path class="st0" d="M86.09,184.17c-1.33,0-2.48-0.48-3.43-1.43c-0.95-0.95-1.43-2.09-1.43-3.43v-13.9c0-1.33,0.48-2.47,1.43-3.43
		s2.09-1.43,3.43-1.43h18.69v5.11H87.4h-1.08v1.08v11.21v1.08h1.08h17.38v5.11H86.09z"/>
	<path class="st0" d="M108.22,184.17v-23.61h5.11v9.25h4.62l7.74-9.25h5.31v1.77l-8.43,10.03l8.43,10.03v1.77h-5.31l-7.74-9.25
		h-4.62v9.25H108.22z"/>
	<path class="st0" d="M134.35,184.17v-23.61h5.12v9.25h4.62l7.74-9.25h5.31v1.77l-8.43,10.03l8.43,10.03v1.77h-5.31l-7.74-9.25
		h-4.62v9.25H134.35z"/>
</g>
<g>
	<g>
		<path class="st2" d="M175.41,27.8L175.41,27.8c-2.35-1.44-8.51-2.81-16.63-4.03c1.39,2.87,2.26,5.96,2.59,9.25
			c4.86,0.79,8.28,1.57,9.47,2.23c4.88,3,5.74,4.02,5.74,10.09V165.1c0,3.4-1.78,11.42-2.08,12.43
			c-3.39,10.17-22.22,32.51-47.86,52.28c-19.43,14.98-29.91,21.66-33.99,21.66c-4.08,0-14.56-6.68-33.99-21.66
			c-25.64-19.78-44.46-42.11-47.84-52.23c-0.32-1.07-2.1-9.08-2.1-12.49V45.34c0-6.07,0.87-7.09,5.74-10.08
			c1.18-0.67,4.6-1.44,9.47-2.24c0.33-3.28,1.2-6.38,2.59-9.25c-8.11,1.22-14.28,2.58-16.63,4.03C3.06,32.02,0,35.55,0,45.34V165.1
			c0,4.81,2.15,14.07,2.53,15.2c4.41,13.24,26.26,37.5,50.81,56.44c28.16,21.71,34.47,23.48,39.32,23.48
			c4.86,0,11.17-1.77,39.32-23.48c24.55-18.94,46.4-43.2,50.81-56.43c0.38-1.14,2.53-10.41,2.53-15.2V45.34
			C185.33,35.55,182.27,32.02,175.41,27.8"/>
	</g>
</g>
</svg>
